<svg aria-hidden="true" style="position: absolute; width: 0; height: 0; overflow: hidden;" version="1.1" xmlns="http://www.w3.org/2000/svg" xmlns:xlink="http://www.w3.org/1999/xlink">
<defs>
<symbol id="github" viewBox="0 0 32 32">
<path d="M15.998 0.333c-8.834 0-15.998 7.192-15.998 16.064 0 7.096 4.584 13.116 10.944 15.242 0.8 0.148 1.092-0.348 1.092-0.774 0-0.382-0.014-1.392-0.022-2.732-4.45 0.97-5.39-2.154-5.39-2.154-0.726-1.856-1.776-2.35-1.776-2.35-1.454-0.996 0.108-0.976 0.108-0.976 1.606 0.114 2.45 1.656 2.45 1.656 1.428 2.454 3.746 1.746 4.658 1.334 0.144-1.038 0.558-1.746 1.016-2.148-3.552-0.406-7.288-1.784-7.288-7.938 0-1.754 0.624-3.188 1.648-4.312-0.166-0.406-0.714-2.040 0.156-4.25 0 0 1.344-0.432 4.4 1.646 1.276-0.356 2.644-0.534 4.006-0.54 1.358 0.008 2.728 0.184 4.006 0.542 3.054-2.078 4.396-1.646 4.396-1.646 0.872 2.212 0.324 3.844 0.16 4.25 1.026 1.124 1.644 2.558 1.644 4.312 0 6.17-3.74 7.528-7.304 7.926 0.574 0.496 1.086 1.476 1.086 2.974 0 2.148-0.020 3.88-0.020 4.406 0 0.43 0.288 0.93 1.1 0.772 6.35-2.128 10.93-8.146 10.93-15.24 0-8.872-7.164-16.064-16.002-16.064z"></path>
</symbol>
<symbol id="email" viewBox="0 0 32 32">
<path d="M23.218 30.345c-2.759 1.241-5.149 1.655-8.414 1.655-7.632 0-14.345-5.471-14.345-14.483 0-9.38 6.804-17.517 17.196-17.517 8.092 0 13.885 5.564 13.885 13.287 0 6.713-3.77 10.943-8.736 10.943-2.161 0-3.724-1.104-3.954-3.541h-0.092c-1.425 2.345-3.494 3.541-5.931 3.541-2.989 0-5.149-2.207-5.149-5.977 0-5.609 4.138-10.713 10.758-10.713 2.023 0 4.322 0.506 5.471 1.149l-1.379 8.506c-0.459 2.712-0.138 3.954 1.149 4 1.977 0.046 4.459-2.483 4.459-7.77 0-5.977-3.862-10.621-10.989-10.621-7.034 0-13.195 5.518-13.195 14.299 0 7.678 4.919 12.046 11.771 12.046 2.345 0 4.828-0.506 6.667-1.471l0.828 2.668zM19.127 11.357c-0.368-0.092-0.828-0.184-1.425-0.184-3.034 0-5.425 2.989-5.425 6.528 0 1.747 0.782 2.851 2.299 2.851 1.701 0 3.494-2.161 3.908-4.828l0.644-4.367z"></path>
</symbol>
<symbol id="linkedin" viewBox="0 0 32 32">
<path d="M27.313 0h-22.625c-2.584 0-4.688 2.103-4.688 4.688v22.625c0 2.584 2.103 4.688 4.688 4.688h22.625c2.584 0 4.688-2.103 4.688-4.688v-22.625c0-2.584-2.103-4.688-4.688-4.688zM11.313 25.375h-3.75v-13.125h3.75zM11.313 10.375h-3.75v-3.75h3.75zM24.438 25.375h-3.75v-7.5c0-1.034-0.841-1.875-1.875-1.875s-1.875 0.841-1.875 1.875v7.5h-3.75v-13.125h3.75v0.707c0.982-0.305 1.621-0.707 2.813-0.707 2.543 0.003 4.688 2.284 4.688 4.98z"></path>
</symbol>
<symbol id="location" viewBox="0 0 32 32">
<path d="M29.271 22.436c-0.454-0.249-1.024-0.084-1.273 0.37s-0.084 1.024 0.37 1.273c1.117 0.613 1.757 1.294 1.757 1.866 0 0.7-0.992 1.785-3.776 2.731-2.75 0.934-6.426 1.449-10.349 1.449s-7.599-0.515-10.349-1.449c-2.784-0.946-3.776-2.031-3.776-2.731 0-0.572 0.64-1.253 1.757-1.866 0.454-0.249 0.62-0.819 0.37-1.273s-0.819-0.62-1.273-0.37c-1.245 0.684-2.729 1.848-2.729 3.509 0 1.273 0.876 3.089 5.048 4.506 2.939 0.999 6.829 1.549 10.952 1.549s8.013-0.55 10.952-1.549c4.172-1.417 5.048-3.233 5.048-4.506 0-1.661-1.484-2.825-2.729-3.509z"></path>
<path d="M8.922 27.321c1.903 0.538 4.417 0.834 7.078 0.834s5.175-0.296 7.078-0.834c2.328-0.658 3.509-1.61 3.509-2.83s-1.181-2.172-3.509-2.83c-0.517-0.146-1.079-0.274-1.677-0.383-0.325 0.561-0.665 1.138-1.020 1.732 0.662 0.099 1.283 0.221 1.847 0.365 1.713 0.436 2.34 0.928 2.468 1.117-0.129 0.189-0.755 0.68-2.468 1.117-1.622 0.413-3.708 0.649-5.906 0.67-0.106 0.008-0.214 0.012-0.322 0.012s-0.215-0.004-0.322-0.012c-2.198-0.021-4.284-0.257-5.906-0.67-1.713-0.436-2.339-0.928-2.468-1.117 0.129-0.189 0.755-0.68 2.468-1.117 0.564-0.144 1.185-0.265 1.847-0.365-0.356-0.594-0.696-1.171-1.020-1.732-0.598 0.109-1.16 0.237-1.677 0.383-2.328 0.658-3.509 1.61-3.509 2.83s1.181 2.172 3.509 2.83z"></path>
<path d="M16 24.415c0.835 0 1.593-0.425 2.028-1.138 3.051-4.991 6.687-11.569 6.687-14.562 0-4.805-3.91-8.715-8.715-8.715s-8.715 3.909-8.715 8.715c0 2.993 3.636 9.571 6.687 14.562 0.435 0.712 1.194 1.138 2.028 1.138zM12.497 8.117c0-1.931 1.571-3.503 3.503-3.503s3.503 1.571 3.503 3.503c0 1.931-1.571 3.503-3.503 3.503s-3.503-1.571-3.503-3.503z"></path>
</symbol>
<symbol id="phone" viewBox="0 0 32 32">
<path d="M23.133 0h-14.267c-1.189 0-2.161 0.972-2.161 2.161v27.676c0 1.189 0.973 2.162 2.161 2.162h14.267c1.189 0 2.161-0.971 2.161-2.161v-27.677c0-1.19-0.973-2.161-2.161-2.161zM13.718 1.558h4.564c0.144 0 0.262 0.117 0.262 0.262s-0.117 0.262-0.262 0.262h-4.564c-0.144 0-0.261-0.117-0.261-0.262s0.117-0.262 0.261-0.262zM16 30.919c-0.597 0-1.081-0.484-1.081-1.082s0.484-1.081 1.081-1.081 1.081 0.483 1.081 1.081-0.484 1.082-1.081 1.082zM23.791 28h-15.581v-24.572h15.581v24.572z"></path>
</symbol>
</defs>
</svg>
